<?xml version="1.0" encoding="UTF-8" standalone="no"?>
<svg
   xmlns:dc="http://purl.org/dc/elements/1.1/"
   xmlns:cc="http://creativecommons.org/ns#"
   xmlns:rdf="http://www.w3.org/1999/02/22-rdf-syntax-ns#"
   xmlns:svg="http://www.w3.org/2000/svg"
   xmlns="http://www.w3.org/2000/svg"
   xmlns:sodipodi="http://sodipodi.sourceforge.net/DTD/sodipodi-0.dtd"
   xmlns:inkscape="http://www.inkscape.org/namespaces/inkscape"
   inkscape:version="1.0 (4035a4fb49, 2020-05-01)"
   height="21"
   width="17"
   sodipodi:docname="apple_music_logo.svg"
   xml:space="preserve"
   viewBox="0 0 16.999999 20.999999"
   y="0px"
   x="0px"
   id="Layer_1"
   version="1.1"><metadata
   id="metadata9"><rdf:RDF><cc:Work
       rdf:about=""><dc:format>image/svg+xml</dc:format><dc:type
         rdf:resource="http://purl.org/dc/dcmitype/StillImage" /><dc:title></dc:title></cc:Work></rdf:RDF></metadata><defs
   id="defs7" /><sodipodi:namedview
   inkscape:current-layer="Layer_1"
   inkscape:window-maximized="1"
   inkscape:window-y="-8"
   inkscape:window-x="-8"
   inkscape:cy="12.927329"
   inkscape:cx="14.75847"
   inkscape:zoom="15.89561"
   showborder="true"
   inkscape:showpageshadow="false"
   showgrid="false"
   id="namedview5"
   inkscape:window-height="1057"
   inkscape:window-width="1777"
   inkscape:pageshadow="2"
   inkscape:pageopacity="0"
   guidetolerance="10"
   gridtolerance="10"
   objecttolerance="10"
   borderopacity="1"
   bordercolor="#666666"
   pagecolor="#ffffff" />
<path
   style="fill:#dedede;fill-opacity:1"
   sodipodi:nodetypes="cccccccsccsssccssc"
   id="path2"
   d="m 11.333523,3.8 c -0.7,0.8 -1.7999995,1.5 -2.8999995,1.4 -0.2,-1.2 0.4,-2.4 1,-3.1 0.6999995,-0.9 1.8999995,-1.5 2.8999995,-1.5 0.1,1.1 -0.3,2.3 -1,3.2 z m 1,1.6 c 0.6,0 2.4,0.2 3.6,2 -0.1,0.1 -2.1,1.3 -2.1,3.8 0,3 2.6,4 2.6,4 0,0.1 -0.4,1.4 -1.3,2.8 -0.8,1.2 -1.7,2.4 -3,2.4 -1.3,0 -1.7,-0.8 -3.1999995,-0.8 -1.5,0 -2,0.8 -3.2,0.8 -1.3,0 -2.3,-1.3 -3.1,-2.5 -1.70000002,-2.5 -3.00000002,-7 -1.2,-10 0.8,-1.5 2.4,-2.5 4,-2.5 1.3,0 2.5,0.9 3.2,0.9 0.7,0 2.0999995,-1 3.6999995,-0.9 z" />
</svg>
